<?xml version="1.0" encoding="utf-8"?>
<!-- Generator: Adobe Illustrator 28.0.0, SVG Export Plug-In . SVG Version: 6.00 Build 0)  -->
<svg version="1.0" id="katman_1" xmlns="http://www.w3.org/2000/svg" xmlns:xlink="http://www.w3.org/1999/xlink" x="0px" y="0px"
	 viewBox="0 0 841.89 595.28" style="enable-background:new 0 0 841.89 595.28;" xml:space="preserve">
<style type="text/css">
	.st0{fill-rule:evenodd;clip-rule:evenodd;fill:#F9BF2C;}
	.st1{fill-rule:evenodd;clip-rule:evenodd;fill:#FFFFFF;}
	.st2{fill-rule:evenodd;clip-rule:evenodd;fill:#F29706;}
	.st3{fill-rule:evenodd;clip-rule:evenodd;fill:#24397F;}
	.st4{fill-rule:evenodd;clip-rule:evenodd;fill:#E30618;}
	.st5{fill-rule:evenodd;clip-rule:evenodd;fill:#231815;}
	.st6{fill:#E30618;}
</style>
<g id="XMLID_2_">
	<g id="XMLID_62_">
		<polygon id="XMLID_112_" class="st0" points="112.39,242.64 140.99,240.24 137.19,275.84 131.09,277.84 124.99,276.64 
			113.59,249.54 		"/>
		<path id="XMLID_111_" class="st1" d="M142.29,324.84c0.3,0.9,4.3,1.4,5.3,1.4c0.9-1.1,1.8-2.8,2.8-4.2c0.7-0.9,1.8-1.8,2.6-1.4
			c0.5,0.2,0.3,1.8,0,2.6c-0.3,1-0.8,1.9-1.2,3c-0.8,1.9-1.5,3.8-2.1,5.8c-3.9,13.3-2.4,25.8,4.9,37.6c8.7,14.1,23.5,20.5,39.4,22.4
			c24.6,3,51.7-7.4,58.4-33.1c1.9-7.2,2.1-13.9,1.2-21.2c-0.1-1.2-0.7-3-0.5-4.5c0.1-0.8,0.4-1.6,1-1.7c0.6-0.2,1.4,0.5,1.9,1.3
			c1.3,2,2,5.6,2.2,7.1c0.6,4.2,0.3,7.8,0.2,12c8.5-0.8,7.3-13.9,5.4-19.5c-2.6-8-8.3-14.4-14.5-19.9c-2.9-2.6-15,3.4-30.2-2.2
			c-3.4-1.3-5.9-2.7-8.3-5.4c-2.7,0.1-5,0.5-7.8,0.6c-2.7,0-5.5-0.5-8-0.4c-7.6,7.1-16.3,7.5-26.2,5.6c-2.6-0.5-11-2.6-13.8-2.6
			c-0.2,0-0.6,0-0.8,0c-2.5,0.2-4.2,0.1-5.7,0c-3-0.2-4.5-0.9-7.1-1.4c-0.4-0.1-0.9-0.2-1.4-0.2L142.29,324.84z"/>
		<path id="XMLID_106_" class="st1" d="M187.89,279.04c3.7,2,5.5,3.2,9.8,4.3c7.6,2,15.9,1.7,22.4-3.3c1.3-1,2.5-2.2,3.4-3.5
			c1.9-2.6,3.8-0.5,3.2,1c-0.8,2.2-5.1,5.7-7.2,6.8c-7.5,4.1-14.9,4.4-23.2,2.1c-4.1-1.2-6-2.6-9.6-4.4c-1-0.7-7-0.5-10.5-4
			c-8.3-8.5,3.2-16.6,8-9.7C185.79,270.44,185.49,273.64,187.89,279.04L187.89,279.04z M221.19,264.54c1.7,0.6,6.9-0.1,5,3.3
			c-2.8,5.2-19.9,11.5-24.7,4.5c-2.5-3.8-1.6-10.2,3.7-11.5c3-0.7,4.5,0.3,7.1,1.2c-2.2-10.1,4.2-14.2,8.8-11.7c1,0.5,3.8,3.5,3,4.3
			c-1.5,1.3-1.5-2-3.6-2.5c0.7,1.5,1.2,2.6,1.1,4.4c-0.7,0.4-1.5,1-1.8,1.7l2,1.3C222.09,261.64,221.69,262.54,221.19,264.54
			L221.19,264.54z M194.89,258.94c0.1,1.9-0.2,4.9-1.4,6.4c-4.2,5.4-10.8-2.5-8.7-10.7c1-4.1,4.9-7.6,9.1-5.4
			c1.2,0.6,3.7,3.1,3.6,4.4c-0.1,1.4-1.5,0.5-2-0.5c-0.5-0.9-1-1.6-2-1.9c0.6,1.9,1.2,2.3,1.1,4.6l-1.8,1.7
			C193.39,258.14,194.19,258.34,194.89,258.94L194.89,258.94z M160.09,267.94c1.9,21.6,24.6,33.2,44.3,32.7
			c20-0.5,41.4-14.1,40.7-36.2c-0.3-10.1-5.9-18.7-13.9-24.6c-4.1-3-8.2-4.7-13-6.4c-2.9-1-4.7,0.2-7.7,0.7
			c-6.2,0.9-12,0.7-18.3-0.1c-4-0.5-4.3-1.1-8.2,0.4c-4,1.6-9,4-12.3,6.9C163.79,248.44,159.19,257.14,160.09,267.94L160.09,267.94z
			"/>
		<path id="XMLID_105_" class="st1" d="M116.39,229.94c-0.6,2.3-3.3,1.3-5,1.3c-0.8,1.6-1.6,3-1.3,5c0.2,1.5,1.6,3,3.1,3.5
			c8,2.6,33.4,0.2,25.6-8.7c-1.4,0.3-2.6,1.1-3.9,0.1c-0.5-0.9,1.9-2.3,2-5.2c0-2-1.5-3.6-2.9-4.6c-1.4,0.1-2.3,0.9-3.8,0.4
			c-0.7-2.1,5.5-6.2,0.2-10.9c-1.9-1.7-3.1-1.7-5-2.8c-2.8-1.7-2.2-2-3.5-4.3c-4.3,1.3-5.3,6.1-4.5,10.1c0.3,1.5,0.8,2.6-0.4,4
			c-1.5,1.7-3.6,3.3-4.2,5.8C111.69,228.04,115.49,228.24,116.39,229.94L116.39,229.94z"/>
		<path id="XMLID_104_" class="st1" d="M200.29,211.64c-0.1,2.4-3.1,8.4-5.6,8.8c-3,0.4-7.2-5.3-7.9-6.8c2.5-4.7-2-6.2-4.1-5
			c-1.9,1.1-3.3,5.6,2.3,6.1c0.6,2.2,1.5,4.8,2.2,7c1.4,4.1,1.6,3.7,1.7,7.2c6.5,1.7,18.4,1.7,24.9-0.1c-0.1-4.1-0.2-1.8,1.6-6.9
			c0.5-1.4,2.5-6.6,2.5-6.6s2.9,0.1,3.7-1.9c1.5-3.6-3-6.5-5.5-3.6c-1.6,1.9-0.5,2.8-0.1,4.4c-1,1.8-5.6,7.3-7.7,6.5
			c-2.9-1-5.1-6.2-5.4-9.1c1.1-1.2,2.2-1.7,1.7-3.9c-0.3-1.4-1.8-2.4-3.2-2.4C198.09,205.44,196.79,209.34,200.29,211.64
			L200.29,211.64z"/>
		<path id="XMLID_95_" class="st2" d="M123.39,268.54c0.2-0.3,3.7-2.6,5.2-2.3c1,0.2,5.4,1.2,6,1.4c-0.3,0.8-4.2,3.8-5.1,3.6
			C128.89,271.14,124.19,268.94,123.39,268.54L123.39,268.54z M136.39,250.84l1.9-2l-0.3,2.5
			C137.99,251.34,136.29,250.84,136.39,250.84L136.39,250.84z M131.19,248.54c0,0,4.3-0.7,4.9-1l-2.4,2.4
			C133.69,249.94,130.69,248.74,131.19,248.54L131.19,248.54z M121.39,260.84c1-0.4,4.8-2.6,5.2-2.7c0.3,0,5.2,1.7,5.6,1.9
			c-0.5,0.7-4.2,3.2-5,3.2c-0.4,0-2.7-0.8-3.2-1C123.19,261.94,121.89,261.64,121.39,260.84L121.39,260.84z M129.39,256.34
			c0.7-0.8,2.6-2,3.6-2.8s0.9-1,2-0.6c0.8,0.3,1.8,0.5,2.6,0.8c0,1.6-1.8,3.2-2.9,4.2C133.49,257.94,130.29,257.04,129.39,256.34
			L129.39,256.34z M121.99,252.64c0.6-0.6,1.5-1,2.2-1.6c0.8-0.6,1.3-1.3,2.1-1.8c0.5,0.1,4.5,2,4.9,2.3c-0.6,1-3.5,2.9-4.7,3.6
			C125.29,254.84,122.69,253.64,121.99,252.64L121.99,252.64z M119.49,251.24c-0.9-0.5-1.9-1-2.4-1.9l4.9,0.1
			C121.59,250.14,120.29,250.84,119.49,251.24L119.49,251.24z M114.49,246.54c0.7,1.7,2.7,8,3.6,8.9l0.1-0.6l1.4-0.7
			c1,0.5,3.8,1.9,4.3,2.6c-0.9,0.7-3.5,2.1-4.6,2.3l2.1,5.1c0.4-0.4-0.3-0.4,0.7-0.2l2.3,1c-0.5,0.5-1.5,1.1-2.3,0.9
			c0.2,1,1.9,5.7,2.4,6.3c0.1-0.6-0.1-0.2,0.2-0.5c0.8,0.3,2.2,0.7,2.6,1.3c-0.6,0.5-1.4,1-2.2,0.9c0.4,1.6,0.8,1.6,2.6,1.8
			c1.1,0.1,2.8,0.4,3.7-0.2h-3.3c0.5-0.3,1.9-1.3,2.3-1.4c0.6-0.1,2.2,0.6,3,0.7c-0.1,0-0.2,0.1-0.2,0.2c0,0.1-0.2,0.1-0.2,0.2
			c0,0-0.1,0.1-0.2,0.2c2.6-0.5,3-1.1,3.1-3.7l-0.5,1.2l-2.4-0.3c0.4-0.9,1.6-1.5,2.4-2.2v1.3c0.3-0.4,2.3-13.6,0.7-6.4
			c-1.2-0.1-4.4-0.7-5.3-1.2c0.5-0.7,1.9-1.4,2.6-2c1.2-0.9,1.7-1.7,3.2-1.5c0.5,4.2,1-7.7,1-8c0.4-3.1,0.9-6.5,1.1-9.6
			c-0.8,0.6-1.2,1.2-2.2,1.7c-2.4,1.4-6.1,2-8.8,2.2c-2.2,0.2-4.8,0.4-7.1,0.2c-1.1-0.1-2.3-0.2-3.4-0.4c-2.3-0.4-2.5-0.8-2.7-0.5
			C114.59,246.34,114.59,246.44,114.49,246.54L114.49,246.54z"/>
		<path id="XMLID_94_" class="st2" d="M221.19,264.54c-2.5-0.2-6.5-1.4-8.8-2.5c-2.6-1-4.1-2-7.1-1.2c-5.3,1.3-6.3,7.7-3.7,11.5
			c4.8,7,21.9,0.7,24.7-4.5C228.09,264.44,222.89,265.14,221.19,264.54L221.19,264.54z"/>
		<path id="XMLID_93_" class="st3" d="M194.89,258.94c-0.8-0.5-1.6-0.8-2.1-1.4l1.9-1.7c0.1-2.3-0.5-2.7-1.1-4.6c1,0.3,1.5,1,2,1.9
			c0.6,1,1.9,1.9,2,0.5c0.1-1.2-2.4-3.8-3.6-4.4c-4.3-2.2-8.1,1.3-9.1,5.4c-2.1,8.2,4.5,16.1,8.7,10.7
			C194.69,263.84,195.09,260.84,194.89,258.94L194.89,258.94z"/>
		<path id="XMLID_92_" class="st3" d="M187.89,279.04c-0.1,1-0.4,0.8-0.4,2c-0.9,0.3-1.6,0.1-2.2,0.4c0.1,0,1.6,0.6,1.7,0.7
			c3.5,1.7,5.4,3.1,9.4,4.2c8.3,2.3,15.7,2,23.2-2.1c2.1-1.1,6.4-4.6,7.2-6.8c0.6-1.5-1.3-3.6-3.2-1c-1,1.3-2.1,2.5-3.4,3.5
			c-6.4,4.9-14.8,5.2-22.4,3.3C193.39,282.24,191.59,281.04,187.89,279.04L187.89,279.04z"/>
		<path id="XMLID_91_" class="st3" d="M212.39,262.04c2.3,1,6.3,2.2,8.8,2.5c0.5-1.9,0.8-2.9,0.6-5l-2-1.3c0.3-0.7,1.2-1.3,1.8-1.7
			c0-1.8-0.4-2.9-1.1-4.4c2.1,0.5,2.1,3.9,3.6,2.5c0.8-0.9-2-3.8-3-4.3C216.59,247.94,210.19,251.94,212.39,262.04L212.39,262.04z"
			/>
		<path id="XMLID_90_" class="st1" d="M128.09,303.04c-5.5,1.3-1.4,13.4,2,15.2C129.99,316.54,128.39,303.84,128.09,303.04
			L128.09,303.04z"/>
		<path id="XMLID_89_" class="st0" d="M125.39,279.34c0,6.5,13.1,4.8,11.1-1c-0.5-0.6-2.3,0.9-5.2,1.3
			C128.79,279.94,127.19,279.24,125.39,279.34L125.39,279.34z"/>
		<path id="XMLID_88_" class="st0" d="M127.29,287.24c-0.6,5.5,11.6,4.4,9.1-0.9c-0.7-0.1-3.1,0.9-4.3,1
			C130.69,287.54,128.19,287.04,127.29,287.24L127.29,287.24z"/>
		<g id="XMLID_80_">
			<g id="XMLID_84_">
				<path id="XMLID_87_" class="st4" d="M243.89,382.14c4-0.1,16.7-3.8,20.8-6.7c4-2.8,3.2-5.6,2.2-9.8c-0.4-1.9-2.1-9.7-2.8-10.9
					c-3.2,1.2-1.2,1.1-6.2,1.9c-0.4,1.1-0.7,2.8-1,4c-1.1,3.8-2.4,7-4.3,10.5C250.39,375.04,246.89,379.34,243.89,382.14
					L243.89,382.14z"/>
				<path id="XMLID_86_" class="st4" d="M216.49,303.84c3.3,2.5,9.5,3.9,13.7,4.2c5.6,0.5,11.2-0.3,16.7-0.9c0-0.8-1.9-2.6-2.6-3.3
					c-2-2-1.6-1.3-1.8-4.2c-0.3-3.3-2.7-5.3-5.2-7c-0.4,0.2-3.6,2.9-4.5,3.5c-1.7,1.2-3.1,2-5,3c-1.8,1-3.6,1.8-5.5,2.6
					C221.29,302.24,216.79,303.64,216.49,303.84L216.49,303.84z"/>
				<path id="XMLID_85_" class="st4" d="M156.19,303.44c1.3,0.5,6.5,1.3,8.3,1.7c2.7,0.6,5.6,1.2,8.3,1.7c3.2,0.5,6.1,0.6,9.3,0
					c3.3-0.6,4.4-1.5,7.2-2.7c-0.7-0.6-4.8-1.7-6.1-2.2c-1.9-0.7-3.7-1.6-5.5-2.5c-6.1-3.4-5.4-3.6-9.7-6.7
					c-2.5,0.9-4.8,3.2-5.8,5.6c-0.9,2-1,1.8-2.9,2.8C158.29,301.54,156.49,302.54,156.19,303.44L156.19,303.44z"/>
			</g>
			<path id="XMLID_83_" class="st4" d="M188.39,281.64c0.1,0,0.5-0.1,0.5-0.1s-0.5-1.3-0.9-2.5c-2.4-5.4-2.2-8.6-3.6-10.7
				c-4.9-6.8-16.3,1.3-8,9.7c2.9,2.9,7.4,3.3,9.5,3.7C186.19,281.84,187.69,281.84,188.39,281.64z"/>
			<path id="XMLID_82_" class="st4" d="M160.19,383.24c-3.2-3.5-3.5-2.7-7.6-8.5c-4.1-5.9-3.2-5.6-5.9-10.1l2,16.7
				C150.09,381.84,158.49,383.14,160.19,383.24L160.19,383.24z"/>
			<path id="XMLID_81_" class="st4" d="M135.99,364.54c-0.6,1.3-1.4,6-1.6,7.6c-0.3,2.7,0.8,4.8,3.4,5.7L135.99,364.54z"/>
		</g>
		<path id="XMLID_79_" class="st0" d="M129.19,292.84l8.9-0.4l9.6,99.3l-0.9,2.4l-3.8-0.3l-1.7-3.8
			C141.19,390.04,129.29,292.84,129.19,292.84L129.19,292.84z"/>
		<path id="XMLID_63_" class="st5" d="M135.99,364.54l1.8,13.2c-2.6-0.9-3.7-3-3.4-5.7C134.49,370.54,135.39,365.94,135.99,364.54
			L135.99,364.54z M243.89,382.14c3-2.7,6.5-7.1,8.6-11c1.9-3.5,3.2-6.7,4.3-10.5c0.3-1.2,0.6-2.9,1-4c5-0.8,2.9-0.7,6.2-1.9
			c0.7,1.2,2.4,9,2.8,10.9c1,4.2,1.8,7-2.2,9.8C260.59,378.24,247.89,381.94,243.89,382.14L243.89,382.14z M146.79,364.64
			c2.7,4.5,1.8,4.3,5.9,10.1c4,5.8,4.4,5,7.6,8.5c-1.7-0.1-10.2-1.3-11.5-1.9L146.79,364.64z M128.09,303.04
			c0.4,0.8,1.9,13.6,2,15.2C126.59,316.34,122.59,304.24,128.09,303.04L128.09,303.04z M140.19,306.44c3.8,0.8,6.9,2.2,14.4,1.6
			c2.1-0.3,11.5,2.1,14.3,2.6c9.9,1.9,18.5,1.5,26.2-5.6c2.5-0.1,5.4,0.4,8,0.4c2.8,0,5.2-0.4,7.8-0.6c2.4,2.7,4.9,4.2,8.3,5.4
			c15.2,5.6,27.2-0.4,30.2,2.2c6.1,5.5,11.8,11.9,14.5,19.9c1.9,5.6,3.1,18.7-5.4,19.5c0.2-4.2,0.5-7.8-0.2-12
			c-0.3-1.8-1.1-6-2.7-7.7c-1.4-1.5-2.3-0.5-2.4,1.2c-0.1,1.4,0.4,3.1,0.6,4.3c0.8,7.3,0.6,14-1.2,21.2
			c-6.7,25.7-33.8,36.1-58.4,33.1c-15.9-1.9-30.8-8.3-39.4-22.4c-7.3-11.9-8.8-24.3-4.9-37.6c0.6-2,1.3-3.9,2.1-5.8
			c0.7-1.6,1.4-2.8,1.6-4.4c0.1-1.2-0.3-1.7-1.4-1.2c-2,0.9-3,4-4.3,5.5c-1,0-5-0.5-5.3-1.4L140.19,306.44z M216.49,303.84
			c0.3-0.2,4.8-1.6,5.8-2c1.9-0.7,3.7-1.6,5.5-2.6s3.3-1.9,5-3c1-0.7,4.1-3.3,4.5-3.5c2.6,1.7,4.9,3.6,5.2,7
			c0.3,2.9-0.2,2.3,1.8,4.2c0.7,0.6,2.6,2.5,2.6,3.3c-5.5,0.6-11.1,1.4-16.7,0.9C225.99,307.74,219.69,306.34,216.49,303.84
			L216.49,303.84z M156.19,303.44c0.3-0.8,2.1-1.9,3-2.3c1.9-1,2-0.8,2.9-2.8c1-2.5,3.3-4.7,5.8-5.6c4.4,3.1,3.6,3.3,9.7,6.7
			c1.8,1,3.6,1.8,5.5,2.5c1.3,0.5,5.4,1.5,6.1,2.2c-2.7,1.1-3.9,2.1-7.2,2.7c-3.2,0.6-6.1,0.5-9.3,0c-2.8-0.5-5.6-1.1-8.3-1.7
			C162.69,304.74,157.49,303.94,156.19,303.44L156.19,303.44z M131.09,294.54l4-0.3c3.7,32.2,7.5,65,11.2,97.2c0,1.2-2.5,1.5-3,0.4
			L131.09,294.54z M127.29,287.24c0.8-0.2,3.4,0.3,4.9,0.1c1.2-0.1,3.6-1.1,4.3-1C138.89,291.54,126.79,292.74,127.29,287.24
			L127.29,287.24z M125.39,279.34c1.9-0.1,3.5,0.6,5.9,0.3c2.9-0.4,4.7-1.8,5.2-1.3C138.39,284.24,125.29,285.84,125.39,279.34
			L125.39,279.34z M160.09,267.94c-0.9-10.8,3.7-19.5,11.6-26.6c3.2-2.9,8.2-5.3,12.3-6.9c3.9-1.5,4.3-0.9,8.2-0.4
			c6.2,0.8,12,1,18.3,0.1c3-0.4,4.8-1.7,7.7-0.7c4.8,1.7,8.8,3.4,13,6.4c8,5.8,13.6,14.5,13.9,24.6c0.7,22-20.7,35.7-40.7,36.2
			C184.79,301.24,161.99,289.64,160.09,267.94L160.09,267.94z M135.49,271.44c-0.2,4.3-4.6,4.5-8,4c-1.7-0.2-2.1-0.1-2.5-1.8
			c-1.1-3.2-2.5-6.6-3.6-9.8c-2.4-5.8-4.4-11.7-6.7-17.6c-0.2-0.9-0.5-1-0.5-1.9c3.6-0.3,9,2,19.6-0.7c1.6-0.4,3.8-1.5,5.3-1.7
			l-0.1,0.8C138.69,245.54,135.39,271.44,135.49,271.44L135.49,271.44z M116.39,229.94c-0.9-1.7-4.7-1.9-3.7-6.5
			c0.6-2.5,2.6-4.1,4.2-5.8c1.2-1.3,0.7-2.4,0.4-4c-0.8-3.9,0.2-8.7,4.5-10.1c1.4,2.3,0.7,2.6,3.5,4.3c1.9,1.1,3.2,1.2,5,2.8
			c5.2,4.6-0.9,8.7-0.2,10.9c1.5,0.5,2.5-0.3,3.8-0.4c1.4,1,2.9,2.7,2.9,4.6c0,2.9-2.5,4.3-2,5.2c1.3,1,2.5,0.3,3.9-0.1
			c7.8,8.9-17.6,11.4-25.6,8.7c-1.5-0.5-2.8-1.9-3.1-3.5c-0.3-2,0.6-3.4,1.3-5C113.09,231.14,115.79,232.24,116.39,229.94
			L116.39,229.94z M221.49,213.24c-0.9,2-2,1.5-3.6,2c-0.2,0.2-3.9,9.8-4.1,10.7c-0.1,0.5-0.1,1.1,0,2.8c-6.4,1.8-18.4,1.8-24.9,0.1
			c-0.1-3.5-0.4-3.1-1.7-7.2c-0.7-2.2-1.6-4.8-2.2-7c-5.7-0.5-4.2-5-2.3-6.1c2-1.2,6.5,0.3,4.1,5c0.7,1.5,4.9,7.2,7.9,6.8
			c2.6-0.4,5.6-6.4,5.6-8.8c-3.4-2.3-2.1-6.2,1.1-6.3c1.5,0,2.9,1,3.2,2.4c0.5,2.2-0.6,2.7-1.7,3.9c0.3,2.9,2.5,8.2,5.4,9.1
			c2.1,0.7,6.7-4.7,7.7-6.5c-0.4-1.6-1.5-2.5,0.1-4.4C218.39,207.04,222.99,209.94,221.49,213.24L221.49,213.24z M136.19,217.54
			c0.5-3.4,0.7-4.9-1.3-7.9c-3-4.6-7.9-4.8-8.7-6.4c-0.7-1.3,1-2.7-0.4-4.1c-2.2-2.2-15.2,2.2-12.7,14.9c0.3,1.7-0.4,1.6-1.5,3
			c-1.6,2-3,4.3-3.1,7c-0.2,3.5,1,2.6-0.1,4.2c-2.3,3.3-3.8,7.5-1.6,11.2c1.4,2.4,0.7,0.9,1.2,3.6c0.6,3.4,1.6,1.4,3.5,6.5
			c0.9,2.4,1.8,4.8,2.7,7.1l6.8,18.1c0.7,1.9,1,1.7,0.5,3.7c-0.6,2.5,0.5,5.5,2.7,6.9c-0.4,1.4-0.8,2-0.4,3.7
			c0.5,1.9,1.5,2.8,2.3,3.4c0.5,0.4,1,0.9,1.2,2.2c0.1,1.2,0.4,2.6,0.4,3.8c-2.3,1.2-5.9,1.7-6.7,8.1c-0.5,4,1.1,8.3,3.2,11.6
			c2.4,3.6,4.5,4.9,5.8,6c0.7,0.5,1.1,1,1.2,1.8l3.3,26.3c0.1,3.1-6.4,18.5-4,24.5c0.6,1.6,1.9,3.1,3.3,4.1
			c5.8,4.1,4.2-1.1,5.8,10.2c0.4,2.5,0.8,4.2,3.6,4.9c2.4,0.6,4.7-0.1,6-2.2c1.1-1.9,0.1-5.3,0.1-7.6c5.2,0.8,10.2,1.6,15.4,2.2
			c3.7,0.4,3.4,0.4,6.7,2c11.2,5.3,24.1,7.6,36.5,6.6c9.5-0.7,18.5-3.2,26.7-8c2.7-1.5,18-3.2,27.5-7.1c12.7-5.2,10.8-10.9,8-22.3
			c-0.6-2.2-1.1-4.7-1.8-6.9c-0.9-2.8,0.5-3.7,1.1-6.6c1.1-5,0.5-10.1-1.2-14.9c-1.4-4.1-3.5-7.8-6.1-11.3c-3.5-4.8-7.1-7.7-8.1-9.1
			c-1-1.4-1.6-3.8-3-5.7c-0.8-1.1-3.7-4.1-3.9-4.8c-0.6-1.7-0.1-3.4-2.3-6.4c-1.3-1.8-2.5-3-4.4-4.1c0.9-2.1,6.4-6.7,8.4-17.1
			c2.6-13.2-2.9-27.3-13.8-35.4c-2.6-1.9-4.9-3.4-7.8-4.9c-3.1-1.6-5.9-2.3-9-3.6c-0.1-0.3-0.2-1.3,0-2c0.5-2.4,1.9-6.4,3.1-8.1
			c0.3-0.4,0.8-0.4,1-0.5c3.4-2.3,4.4-6.6,2.1-10.1c-3.6-5.6-12.1-3.4-13.1,2.8c-0.1,0.5-0.1,0.9-0.1,1.3c0.1,0.9,0.3,1.5,0.3,1.5
			l-2.6,2.8l-1.6-3.8c0,0,0.7-0.9,1.2-2.7c0.7-4-2.3-8.3-7.2-8.3c-3.7,0-6.5,2.9-7.1,6.1c0,0.3-0.1,0.7-0.1,1
			c-0.2,2.8,1.3,4.1,1.3,4.1l-1.5,2.7l-2.5-2.9c0.7-3.7-1.5-5.9-1.5-5.9l0,0c-0.4-0.5-0.9-1-1.5-1.4c-5.4-3.7-13.1,1.4-11,8.1
			c0.8,2.6,1.8,2.4,3.6,4c0,0,0.1,0.2,0.3,0.4c0.7,1.4,2.3,6,3,8.8c0.3,1.2,0.1,2.2,0,2.5c-0.6,1-18.6,4.7-26.2,22.8
			c-4.7,11.2-3.1,23.7,3.7,33.6c0.8,1.1,2,2.5,2.6,3.5c-0.5,0.7-3.1,2.3-4,3.4c-0.7,0.8-2.7,4.1-2.9,4.3c-1.4,1.1-2.8,1.4-4.2,3
			c-1.3,1.4-2.3,2.2-3,4.2c-2.1,0-9.3-1.3-10.7-2.7l-1-9.4c1.1-0.9,1.8-2.5,1.9-3.9c0.1-1.9-0.7-2.6-1.4-4.1c1.1-1.9,2.3-3.5,1-6.7
			c-0.8-2-1-0.9-0.7-3.5c0.1-1.2,0.3-2.4,0.4-3.6c0.6-5.1,1.2-10.3,1.7-15.4c0.1-1.2,1.1-10.4,1.4-11.3c1.9-5.2,0-4.2,0.9-7.1
			c1.7-5.1-2.9-8.7-3.1-9.1c0-2.6,0.2-3.6-1.2-5.9C138.59,219.44,137.39,218.74,136.19,217.54L136.19,217.54z"/>
	</g>
	<g id="XMLID_3_">
		<g id="XMLID_56_">
			<path id="XMLID_61_" class="st4" d="M352.79,281.24l1.6-2.4l30-45.5c1-1.5,2.4-2.7,4-3.4l0.2-0.1h0.1l0.2-0.1
				c1.4-0.6,2.9-0.9,4.5-0.9l0,0l0,0h0.2l0,0h0.2l0,0c1.6,0.1,3.2,0.5,4.7,1.2l0,0c2.1,1.1,3.6,2.7,4.5,4.6l0.1,0.1v0.1l0.1,0.1
				c0.4,0.9,0.6,1.9,0.6,3v84.9c0,5-4.7,9.1-10.4,9.1l0,0c-5.7,0-10.4-4.1-10.4-9.1v-47.6c-0.1-2-0.4-2.8-2.2,0l-19.7,30
				c-4,6.1-14.5,6.1-18.5,0l-19.7-30c-1.8-2.8-2.1-2-2.2,0v47.6c0,5-4.7,9.1-10.4,9.1l0,0c-5.7,0-10.4-4.1-10.4-9.1v-85
				c0-1,0.2-2.1,0.6-3l0.1-0.1v-0.1l0.1-0.1c0.8-1.9,2.4-3.5,4.5-4.6l0,0c1.5-0.7,3.1-1.1,4.7-1.2l0,0h0.2l0,0h0.2l0,0l0,0
				c1.6,0,3.2,0.3,4.5,0.9l0.2,0.1h0.1l0.2,0.1c1.6,0.8,3.1,1.9,4,3.4l30,45.5l1.6,2.4C351.79,282.84,351.59,282.84,352.79,281.24z"
				/>
			<path id="XMLID_60_" class="st4" d="M428.89,228.74L428.89,228.74c5.7,0,10.4,4.3,10.4,9.5v84.2c0,5.2-4.7,9.5-10.4,9.5l0,0
				c-5.7,0-10.4-4.3-10.4-9.5v-84.2C418.49,233.04,423.19,228.74,428.89,228.74z"/>
			<path id="XMLID_59_" class="st4" d="M670.89,228.74L670.89,228.74c0.4,0,0.7,0,1.1,0h54.6c5.7,0,10.4,4.1,10.4,9.1l0,0
				c0,5-4.7,9.1-10.4,9.1h-8.9c-11.3,0-22.6,0-33.8,0c-1.4,0-2.5,1-2.5,2.2v20.4c0,1.2,1.1,2.2,2.5,2.2c11.3,0,22.6,0,33.8,0h0.3
				h6.6c5.7,0,10.4,4.1,10.4,9.1l0,0c0,5-4.7,9.1-10.4,9.1h-6.4h-0.5c-11.3,0-22.6,0-33.8,0c-1.4,0-2.5,1-2.5,2.2v19.4
				c0,1.2,1.1,2.2,2.5,2.2c11.3,0,22.6,0,33.8,0h8.9c5.7,0,10.4,4.1,10.4,9.1l0,0c0,5-4.7,9.1-10.4,9.1h-55.2h-0.2h-0.2l0,0
				c-5.7,0-10.4-4.1-10.4-9.1v-85C660.49,232.84,665.19,228.74,670.89,228.74z"/>
			<path id="XMLID_58_" class="st4" d="M538.39,230.24L538.39,230.24c4.6,3,5.6,8.7,2.3,12.7l-26.1,31.4c-6.2,7.4-5.4,5.5,1.3,13.6
				l24.8,29.8c3.4,4,2.3,9.8-2.3,12.7l0,0c-4.6,3-11.1,2.1-14.5-2l-21.9-26.3c-6.3-7.6-4.3-7.6-10.6,0.1l-21.8,26.3
				c-3.4,4-9.9,4.9-14.5,2l0,0c-4.6-3-5.6-8.7-2.3-12.7l24.1-29c8.3-9.8,8.1-7.1-0.4-17.3l-23.8-28.6c-3.4-4.1-2.3-9.8,2.3-12.7l0,0
				c4.6-3,11.1-2.1,14.5,2l22.5,27c5.5,6.6,3.7,6.9,9.1,0.4l22.8-27.4C527.19,228.14,533.69,227.24,538.39,230.24z"/>
			<path id="XMLID_57_" class="st4" d="M598.89,332.24h-0.5c-24.9,0-45.4-17.9-45.4-39.8v-54.9c0-5,4.7-9.1,10.4-9.1
				c5.7,0,10.4,4.1,10.4,9.1c0,19.1,0.6,34.1,0.6,53.4c0,11.9,11.1,21.6,24.7,21.6h1.7c13.6,0,24.7-9.7,24.7-21.6v-50.7
				c0.1-1.2,0.3-2.7,0.7-4.2c0.8-4.3,5.1-7.7,10.3-7.7c5.7,0,10.4,4.1,10.4,9.1v55c0,21.9-20.4,39.8-45.4,39.8H598.89z"/>
		</g>
		<g id="XMLID_4_">
			<g id="XMLID_6_">
				<path id="XMLID_54_" class="st6" d="M486.19,375.94v-21.5c0-0.6,0.5-1.1,1.1-1.1h2.4c0.6,0,1.1,0.5,1.1,1.1v21.5
					c0,0.6-0.5,1.1-1.1,1.1h-2.4C486.69,377.04,486.19,376.54,486.19,375.94z"/>
				<path id="XMLID_52_" class="st6" d="M514.89,375.94v-21.5c0-0.6,0.5-1.1,1.1-1.1h13.4c0.6,0,1.1,0.5,1.1,1.1v1.9
					c0,0.6-0.5,1.1-1.1,1.1h-9.2c-0.4,0-0.7,0.3-0.7,0.7v4.2c0,0.4,0.3,0.7,0.7,0.7h7.6c0.6,0,1.1,0.5,1.1,1.1v1.9
					c0,0.6-0.5,1.1-1.1,1.1h-7.6c-0.4,0-0.7,0.3-0.7,0.7v4.4c0,0.4,0.3,0.7,0.7,0.7h9.2c0.6,0,1.1,0.5,1.1,1.1v1.9
					c0,0.6-0.5,1.1-1.1,1.1h-13.4C515.39,377.04,514.89,376.54,514.89,375.94z"/>
				<path id="XMLID_50_" class="st6" d="M504.39,377.24c-2.6,0-4.7-0.9-6.4-2.6c-2.4-2.4-2.3-5.4-2.3-9.5s-0.1-7.1,2.3-9.5
					c1.7-1.7,3.8-2.6,6.4-2.6c2.5,0,4.2,0.7,5.7,1.9c0.5,0.4,0.6,1.2,0.1,1.7l-1.5,1.5c-0.4,0.4-1.1,0.4-1.5,0.1
					c-0.8-0.6-1.5-1-2.8-1s-2.3,0.5-2.9,1.2c-0.9,1-1.2,2.1-1.2,6.7c0,4.6,0.3,5.7,1.2,6.7c0.7,0.8,1.7,1.2,2.9,1.2
					c1.3,0,2-0.4,2.8-1c0.4-0.4,1.1-0.3,1.5,0.1l1.5,1.5c0.5,0.5,0.4,1.3-0.1,1.7C508.59,376.54,506.89,377.24,504.39,377.24z"/>
				<path id="XMLID_48_" class="st6" d="M586.89,375.94v-21.5c0-0.6,0.5-1.1,1.1-1.1h13.4c0.6,0,1.1,0.5,1.1,1.1v1.9
					c0,0.6-0.5,1.1-1.1,1.1h-9.2c-0.4,0-0.7,0.3-0.7,0.7v4.2c0,0.4,0.3,0.7,0.7,0.7h7.6c0.6,0,1.1,0.5,1.1,1.1v1.9
					c0,0.6-0.5,1.1-1.1,1.1h-7.6c-0.4,0-0.7,0.3-0.7,0.7v4.4c0,0.4,0.3,0.7,0.7,0.7h9.2c0.6,0,1.1,0.5,1.1,1.1v1.9
					c0,0.6-0.5,1.1-1.1,1.1h-13.4C587.39,377.04,586.89,376.54,586.89,375.94z"/>
				<path id="XMLID_46_" class="st6" d="M697.39,375.94v-21.5c0-0.6,0.5-1.1,1.1-1.1h13.4c0.6,0,1.1,0.5,1.1,1.1v1.9
					c0,0.6-0.5,1.1-1.1,1.1h-9.2c-0.4,0-0.7,0.3-0.7,0.7v4.2c0,0.4,0.3,0.7,0.7,0.7h7.6c0.6,0,1.1,0.5,1.1,1.1v1.9
					c0,0.6-0.5,1.1-1.1,1.1h-7.6c-0.4,0-0.7,0.3-0.7,0.7v4.4c0,0.4,0.3,0.7,0.7,0.7h9.2c0.6,0,1.1,0.5,1.1,1.1v1.9
					c0,0.6-0.5,1.1-1.1,1.1h-13.4C697.89,377.04,697.39,376.54,697.39,375.94z"/>
				<path id="XMLID_44_" class="st6" d="M647.19,375.94v-11.8c0-0.2-0.3-0.3-0.4-0.1l-3.7,7.4c-0.2,0.5-0.7,0.7-1.2,0.7h-1.5
					c-0.5,0-1-0.3-1.2-0.7l-3.8-7.4c-0.1-0.2-0.4-0.1-0.4,0.1v11.8c0,0.6-0.5,1.1-1.1,1.1h-2.4c-0.6,0-1.1-0.5-1.1-1.1v-21.5
					c0-0.6,0.5-1.1,1.1-1.1h2.5c0.6,0,1.2,0.3,1.4,0.9l5.6,11.5c0.1,0.2,0.3,0.2,0.4,0l5.5-11.5c0.3-0.5,0.8-0.9,1.4-0.9h2.5
					c0.6,0,1.1,0.5,1.1,1.1v21.5c0,0.6-0.5,1.1-1.1,1.1h-2.4C647.69,377.04,647.19,376.54,647.19,375.94z"/>
				<path id="XMLID_42_" class="st6" d="M555.29,377.24c-2.6,0-4.7-0.9-6.4-2.6c-2.4-2.4-2.3-5.4-2.3-9.5s-0.1-7.1,2.3-9.5
					c1.7-1.7,3.8-2.6,6.4-2.6c2.5,0,4.2,0.7,5.7,1.9c0.5,0.4,0.6,1.2,0.1,1.7l-1.5,1.5c-0.4,0.4-1.1,0.4-1.5,0.1
					c-0.8-0.6-1.5-1-2.8-1s-2.3,0.5-2.9,1.2c-0.9,1-1.2,2.1-1.2,6.7c0,4.6,0.3,5.7,1.2,6.7c0.7,0.8,1.7,1.2,2.9,1.2
					c1.3,0,2-0.4,2.8-1c0.4-0.4,1.1-0.3,1.5,0.1l1.5,1.5c0.5,0.5,0.4,1.3-0.1,1.7C559.39,376.54,557.69,377.24,555.29,377.24z"/>
				<path id="XMLID_39_" class="st6" d="M577.89,376.44l-4.1-8.5c-0.1-0.2-0.3-0.4-0.6-0.4h-2.2c-0.4,0-0.7,0.3-0.7,0.7v7.7
					c0,0.6-0.5,1.1-1.1,1.1h-2.5c-0.6,0-1.1-0.5-1.1-1.1v-21.5c0-0.6,0.5-1.1,1.1-1.1h8.2c4.8,0,7.7,3.3,7.7,7.3
					c0,3.1-1.8,5.1-3.9,6.1c-0.2,0.1-0.4,0.4-0.2,0.6l4.4,8.5c0.3,0.6-0.1,1.3-0.8,1.3h-3.2
					C578.49,377.04,578.09,376.74,577.89,376.44z M574.59,357.44h-3.7c-0.4,0-0.7,0.3-0.7,0.7v4.9c0,0.4,0.3,0.7,0.7,0.7h3.7
					c2,0,3.4-1.3,3.4-3.1C577.99,358.74,576.59,357.44,574.59,357.44z"/>
				<path id="XMLID_36_" class="st6" d="M621.79,376.24l-1-3.1c-0.1-0.2-0.2-0.3-0.4-0.3h-7.8c-0.2,0-0.4,0.1-0.4,0.3l-1.1,3.1
					c-0.2,0.5-0.6,0.8-1.1,0.8h-2.4c-0.8,0-1.3-0.8-1.1-1.5l7.8-21.5c0.2-0.4,0.6-0.7,1.1-0.7h2.1c0.5,0,0.9,0.3,1.1,0.7l7.9,21.5
					c0.3,0.7-0.3,1.5-1.1,1.5h-2.4C622.39,377.04,621.99,376.74,621.79,376.24z M616.29,360.84l-2.6,7.4c-0.1,0.3,0.1,0.6,0.4,0.6
					h4.7c0.3,0,0.5-0.3,0.4-0.6l-2.5-7.4C616.69,360.64,616.39,360.64,616.29,360.84z"/>
				<path id="XMLID_33_" class="st6" d="M732.39,376.24l-1-3.1c-0.1-0.2-0.2-0.3-0.4-0.3h-7.8c-0.2,0-0.4,0.1-0.4,0.3l-1.1,3.1
					c-0.2,0.5-0.6,0.8-1.1,0.8h-2.4c-0.8,0-1.3-0.8-1.1-1.5l7.8-21.5c0.2-0.4,0.6-0.7,1.1-0.7h2.1c0.5,0,0.9,0.3,1.1,0.7l7.9,21.5
					c0.3,0.7-0.3,1.5-1.1,1.5h-2.4C732.89,377.04,732.49,376.74,732.39,376.24z M726.79,360.84l-2.6,7.4c-0.1,0.3,0.1,0.6,0.4,0.6
					h4.7c0.3,0,0.5-0.3,0.4-0.6l-2.5-7.4C727.19,360.64,726.89,360.64,726.79,360.84z"/>
				<path id="XMLID_29_" class="st6" d="M671.39,376.34l-1.2-1.4c-1.1,0.9-2.7,2.3-6.1,2.3c-5.2,0-7.8-2.7-7.8-7.2
					c0-3,2.2-5,4.3-6.4c-1-1.1-2.4-2.8-2.4-5c0-3.2,2.4-5.5,6.3-5.5c3.7,0,6.1,2.4,6.1,5.6c0,1.8-1,3.1-2.4,4.1c0,0-1.1,0.8-1.7,1.2
					l4,4.7c0.6-0.8,1-1.9,1.1-3.2c0.1-0.6,0.5-1,1.1-1h1.9c0.7,0,1.2,0.6,1.1,1.3c-0.3,2.5-1,4.5-2.4,6.1l3,3.6
					c0.5,0.6,0.1,1.5-0.7,1.5h-2.9C672.19,377.04,671.69,376.84,671.39,376.34z M662.79,366.34c-1.4,1-2.4,1.9-2.4,3.6
					c0,2,1.6,3.3,3.6,3.3c1.4,0,2.4-0.4,3.5-1.4L662.79,366.34z M664.39,356.74c-1.3,0-2,0.8-2,1.9c0,0.9,0.7,1.7,1.6,2.7
					c0.3-0.2,1-0.7,1-0.7c0.8-0.5,1.4-1.2,1.4-2C666.39,357.64,665.69,356.74,664.39,356.74z"/>
				<path id="XMLID_27_" class="st6" d="M686.99,357.84v18.1c0,0.6-0.5,1.1-1.1,1.1h-2.4c-0.6,0-1.1-0.5-1.1-1.1v-18.1
					c0-0.2-0.2-0.4-0.4-0.4h-4.6c-0.6,0-1.1-0.5-1.1-1.1v-1.9c0-0.6,0.5-1.1,1.1-1.1h14.8c0.6,0,1.1,0.5,1.1,1.1v1.9
					c0,0.6-0.5,1.1-1.1,1.1h-4.6C687.19,357.44,686.99,357.64,686.99,357.84z"/>
				<g id="XMLID_15_">
					<path id="XMLID_25_" class="st6" d="M372.09,375.84v-21.3c0-0.6,0.5-1.1,1.1-1.1h13.3c0.6,0,1.1,0.5,1.1,1.1v1.9
						c0,0.6-0.5,1.1-1.1,1.1h-9.1c-0.4,0-0.7,0.3-0.7,0.7v4.2c0,0.4,0.3,0.7,0.7,0.7h7.5c0.6,0,1.1,0.5,1.1,1.1v1.9
						c0,0.6-0.5,1.1-1.1,1.1h-7.5c-0.4,0-0.7,0.3-0.7,0.7v4.4c0,0.4,0.3,0.7,0.7,0.7h9.1c0.6,0,1.1,0.5,1.1,1.1v1.9
						c0,0.6-0.5,1.1-1.1,1.1h-13.3C372.59,376.94,372.09,376.44,372.09,375.84z"/>
					<path id="XMLID_23_" class="st6" d="M361.89,377.14c-2.6,0-4.7-0.9-6.3-2.6c-2.4-2.4-2.3-5.3-2.3-9.4s-0.1-7,2.3-9.4
						c1.7-1.7,3.8-2.6,6.3-2.6s4.1,0.7,5.6,1.9c0.5,0.4,0.6,1.2,0.1,1.7l-1.5,1.5c-0.4,0.4-1,0.4-1.5,0.1c-0.7-0.6-1.5-1-2.8-1
						s-2.2,0.5-2.9,1.2c-0.9,1-1.2,2.1-1.2,6.6s0.3,5.6,1.2,6.6c0.7,0.8,1.7,1.2,2.9,1.2c1.2,0,2-0.4,2.8-1c0.4-0.4,1.1-0.3,1.5,0.1
						l1.5,1.5c0.5,0.5,0.4,1.2-0.1,1.7C366.09,376.34,364.39,377.14,361.89,377.14z"/>
					<path id="XMLID_21_" class="st6" d="M344.39,376.34l-8.5-13.2c-0.1-0.2-0.4-0.1-0.4,0.1v12.6c0,0.6-0.5,1.1-1.1,1.1h-2.4
						c-0.6,0-1.1-0.5-1.1-1.1v-21.3c0-0.6,0.5-1.1,1.1-1.1h2.3c0.5,0,0.9,0.2,1.1,0.6l8.5,13.2c0.1,0.2,0.4,0.1,0.4-0.1v-12.5
						c0-0.6,0.5-1.1,1.1-1.1h2.4c0.6,0,1.1,0.5,1.1,1.1v21.3c0,0.6-0.5,1.1-1.1,1.1h-2.3C345.09,376.94,344.69,376.64,344.39,376.34
						z"/>
					<g id="XMLID_19_">
						<path id="XMLID_20_" class="st6" d="M308.19,377.24c-3.1,0-6-0.7-7.6-1.1c-0.6-0.2-0.9-0.7-0.8-1.3l0.4-1.9
							c0.1-0.6,0.8-1,1.4-0.8c3.3,0.9,10.8,2.4,10.9-1.2c0.1-2.3-3-3.2-5.6-3.7c-1.2-0.3-2.5-0.5-3.5-1c-3.1-1.6-4.6-5.5-2.9-8.8
							c2.6-5.4,9.8-4.6,14.5-3.2c0.6,0.2,0.9,0.8,0.7,1.4l-0.7,1.9c-0.2,0.6-0.8,0.9-1.4,0.7c-2.8-0.9-7.9-1.9-9.3,1
							c-0.8,1.6-0.1,3.3,1.6,3.8l6.1,1.7c3,1,4.8,3.4,4.7,6.5C316.69,375.84,312.29,377.24,308.19,377.24L308.19,377.24z"/>
					</g>
					<g id="XMLID_16_">
						<path id="XMLID_17_" class="st6" d="M321.09,375.84v-21.3c0-0.6,0.5-1.1,1.1-1.1h2.4c0.6,0,1.1,0.5,1.1,1.1v21.3
							c0,0.6-0.5,1.1-1.1,1.1h-2.4C321.59,376.94,321.09,376.44,321.09,375.84z"/>
					</g>
				</g>
				<path id="XMLID_12_" class="st6" d="M421.99,352.54h-2.6c-3.1,0-5.7,2.5-5.7,5.7v4.2c0,1.8,0.6,3.3,1.7,4.4c1,1,2.4,1.6,3.9,1.6
					c1.6,0.1,3.1-0.1,4.4-0.5v1.2c0,2.7-2.2,4.9-4.9,4.9h-1.8h-0.7h-0.7c-0.7,0-1.2,0.5-1.2,1.2v1.4c0,0.7,0.5,1.2,1.2,1.2h0.7h0.7
					h1.8c4.9,0,8.8-3.9,8.8-8.8v-10.8C427.69,355.04,425.09,352.54,421.99,352.54z M423.79,363.74c-1.3,0.6-2.7,0.8-4.3,0.8l0,0
					c-0.4,0-0.9-0.1-1.3-0.4c-0.3-0.3-0.5-0.9-0.5-1.7v-4.2c0-1,0.8-1.8,1.8-1.8h2.6c1,0,1.8,0.8,1.8,1.8v5.5H423.79z"/>
				<path id="XMLID_9_" class="st6" d="M437.89,352.54h-2.6c-3.1,0-5.7,2.5-5.7,5.7v4.2c0,1.8,0.6,3.3,1.7,4.4c1,1,2.4,1.6,3.9,1.6
					c1.6,0.1,3.1-0.1,4.4-0.5v1.2c0,2.7-2.2,4.9-4.9,4.9h-1.8h-0.7h-0.7c-0.7,0-1.2,0.5-1.2,1.2v1.4c0,0.7,0.5,1.2,1.2,1.2h0.7h0.7
					h1.8c4.9,0,8.8-3.9,8.8-8.8v-10.8C443.59,355.04,440.99,352.54,437.89,352.54z M439.69,363.74c-1.3,0.6-2.7,0.8-4.3,0.8l0,0
					c-0.4,0-0.9-0.1-1.3-0.4c-0.3-0.3-0.5-0.9-0.5-1.7v-4.2c0-1,0.8-1.8,1.8-1.8h2.6c1,0,1.8,0.8,1.8,1.8v5.5H439.69z"/>
				<path id="XMLID_8_" class="st6" d="M458.49,353.14c-0.4-0.5-0.9-0.7-1.5-0.7h-9.5h-0.8h-0.7c-0.7,0-1.2,0.5-1.2,1.2v1.4
					c0,0.7,0.5,1.2,1.2,1.2h0.7h0.8h7l-4.8,18.2v0.1l-0.4,1.4c-0.2,0.7,0.2,1.3,0.9,1.5l0.5,0.1c0.1,0,0.1,0,0.2,0.1
					c0.1,0,0.1,0,0.2,0l0.5,0.1c0.7,0.2,1.3-0.2,1.5-0.9l0.4-1.4c0-0.1,0-0.1,0-0.2l5.5-20.6
					C458.99,354.24,458.89,353.64,458.49,353.14z"/>
				<path id="XMLID_7_" class="st6" d="M410.59,373.84h-2.3v-19.4c0-0.7-0.4-1.3-0.9-1.6c-0.6-0.4-1.3-0.4-1.9-0.1
					c-0.1,0.1-0.2,0.1-0.3,0.2c-0.1,0-0.1,0-0.2,0.1l-3.8,1.9c-0.5,0.2-0.7,0.8-0.4,1.3l0.9,1.8c0.2,0.5,0.8,0.7,1.3,0.4l1.6-0.8
					v16.3h-2.3c-0.7,0-1.2,0.5-1.2,1.2v0.4c0,0.1,0,0.3,0,0.4s0,0.3,0,0.4v0.3c0,0.7,0.5,1.2,1.2,1.2h0.7h7.1h0.7
					c0.7,0,1.2-0.5,1.2-1.2v-1.5C411.79,374.44,411.29,373.84,410.59,373.84z"/>
			</g>
			<circle id="XMLID_5_" class="st6" cx="472.09" cy="365.14" r="3"/>
		</g>
	</g>
</g>
</svg>
